<?xml version="1.0" standalone="no"?>
<!DOCTYPE svg PUBLIC "-//W3C//DTD SVG 20010904//EN"
 "http://www.w3.org/TR/2001/REC-SVG-20010904/DTD/svg10.dtd">
<svg version="1.0" xmlns="http://www.w3.org/2000/svg"
 width="375.000000pt" height="375.000000pt" viewBox="0 0 375.000000 375.000000"
 preserveAspectRatio="xMidYMid meet">

<g transform="translate(0.000000,375.000000) scale(0.100000,-0.100000)"
fill="#000000" stroke="none">
<path d="M1740 3659 c-143 -11 -314 -46 -440 -90 -78 -27 -99 -36 -155 -66
-11 -6 -56 -28 -100 -49 -44 -21 -86 -44 -93 -51 -7 -7 -18 -13 -24 -13 -15 0
-165 -119 -182 -145 -9 -13 -26 -26 -38 -30 -22 -7 -208 -191 -208 -207 0 -4
-11 -20 -25 -35 -93 -104 -196 -284 -277 -483 -42 -104 -84 -316 -99 -501 -15
-189 -2 -380 37 -529 28 -109 55 -203 67 -235 53 -141 138 -305 177 -340 11
-10 20 -24 20 -31 0 -28 125 -175 238 -280 124 -116 198 -175 269 -215 23 -13
88 -51 145 -84 56 -33 130 -69 163 -80 33 -11 65 -23 70 -27 20 -12 278 -79
348 -89 180 -28 616 -2 716 42 24 10 51 19 60 19 43 0 303 115 434 193 115 68
342 265 417 362 25 32 57 72 72 89 96 114 272 480 283 591 2 23 11 60 19 81 8
22 17 55 20 74 12 71 34 336 31 360 -2 14 -9 75 -15 135 -22 229 -73 416 -166
611 -59 123 -160 286 -218 353 -70 81 -222 231 -233 231 -7 0 -13 4 -13 9 0 4
-17 20 -39 34 -21 14 -65 47 -97 73 -32 27 -81 59 -108 72 -28 13 -64 34 -81
47 -73 57 -292 129 -472 157 -40 6 -73 15 -73 20 0 4 -21 8 -47 7 -69 -2 -224
12 -251 22 -13 5 -26 8 -30 8 -4 -1 -50 -5 -102 -10z m268 -230 c280 -31 568
-141 785 -301 312 -230 514 -531 615 -918 58 -220 59 -508 3 -765 -43 -202
-159 -442 -296 -616 -294 -375 -737 -608 -1186 -626 -137 -6 -239 2 -239 19 0
10 73 5 140 -9 23 -4 22 -2 -12 29 -51 47 -60 70 -60 157 1 108 0 111 -57 111
-64 0 -129 21 -184 59 -25 17 -50 31 -55 31 -10 0 -77 78 -106 123 -11 18 -15
38 -12 52 3 13 1 27 -5 30 -5 4 -9 17 -8 28 2 12 -2 31 -8 42 -5 11 -13 32
-17 48 -6 24 -4 27 18 27 34 0 56 -10 56 -24 0 -7 28 -21 63 -30 154 -43 245
-130 302 -289 19 -52 23 -57 28 -36 4 13 19 38 34 55 28 31 113 90 113 78 0
-4 7 -1 15 6 14 12 35 14 106 11 14 -1 33 -7 43 -14 16 -12 17 -18 5 -55 -7
-23 -16 -42 -21 -42 -4 0 -8 -7 -8 -15 0 -19 -100 -84 -142 -92 -18 -3 -39
-11 -46 -16 -10 -8 -16 -7 -22 2 -5 9 -10 10 -14 2 -4 -6 -18 -8 -32 -5 l-25
6 2 -86 c2 -100 20 -139 79 -168 43 -22 83 -22 216 -3 262 39 534 160 758 336
71 56 227 219 270 281 12 18 38 56 58 83 118 165 220 432 254 670 16 104 17
349 3 420 -4 22 -15 83 -24 135 -17 96 -38 167 -82 275 -39 94 -45 105 -102
200 -66 112 -111 174 -178 246 -72 80 -237 229 -252 229 -3 0 -21 13 -39 29
-19 15 -78 51 -133 80 -54 28 -111 58 -126 66 -66 35 -198 76 -348 110 -283
63 -672 23 -934 -97 -35 -16 -66 -27 -68 -24 -10 10 173 81 282 109 62 16 207
44 260 51 69 8 242 5 333 -5z m-918 -174 c0 -2 -10 -9 -22 -15 -22 -11 -22
-10 -4 4 21 17 26 19 26 11z m-40 -43 c31 -29 42 -72 34 -137 -4 -33 -6 -77
-5 -98 l2 -39 -32 33 c-17 18 -40 51 -50 73 -20 45 -19 48 -24 -54 -1 -25 -3
-65 -4 -90 -2 -25 -2 -47 -1 -50 1 -3 4 -87 7 -187 4 -130 2 -183 -6 -183 -6
0 -11 -18 -11 -40 0 -103 -186 -360 -330 -455 -72 -48 -166 -95 -198 -99 -16
-1 -44 -11 -63 -20 -39 -19 -114 -33 -89 -17 8 6 10 11 4 11 -5 0 -15 -5 -22
-12 -17 -17 -25 13 -26 96 0 80 6 142 16 151 4 4 4 13 1 21 -3 8 0 35 6 61 6
27 14 59 17 73 3 14 6 30 7 35 2 6 5 15 9 20 3 6 17 44 31 85 45 132 117 267
219 411 31 42 166 196 196 223 7 6 43 38 79 71 36 33 77 66 92 74 14 8 28 17
31 21 7 10 63 38 78 39 7 1 21 -7 32 -17z m-360 -16 c0 -2 -8 -10 -17 -17 -16
-13 -17 -12 -4 4 13 16 21 21 21 13z"/>
</g>
</svg>
